#N canvas 72 66 450 300 10;
#X text 15 10 _head remote ctl;
#X floatatom 20 67 5 0 0 0 - - -, f 5;
#X obj 17 244 pdOSC/osc-send localhost 10049;
#X msg 16 92 /DAC \$1;
#X floatatom 86 67 5 0 0 0 - - -, f 5;
#X msg 82 92 /ADC \$1;
#X obj 173 64 bng 15 250 50 0 empty empty empty 17 7 0 10 -262144 -1
-1;
#X msg 173 93 /play 1;
#X obj 252 62 bng 15 250 50 0 empty empty empty 17 7 0 10 -262144 -1
-1;
#X msg 252 91 /stop 1;
#X obj 317 69 tgl 15 0 empty empty empty 17 7 0 10 -262144 -1 -1 1
1;
#X msg 318 95 /loop \$1;
#X obj 307 176 bng 15 250 50 0 empty empty empty 17 7 0 10 -262144
-1 -1;
#X msg 325 178 /head/patcher/+;
#X msg 323 199 /head/patcher/-;
#X msg 313 237 /head/patcher/go;
#X obj 305 202 bng 15 250 50 0 empty empty empty 17 7 0 10 -262144
-1 -1;
#X obj 292 244 bng 15 250 50 0 empty empty empty 17 7 0 10 -262144
-1 -1;
#X obj 199 35 metro 250;
#X obj 201 12 tgl 15 0 empty empty empty 17 7 0 10 -262144 -1 -1 0
1;
#X obj 13 35 pdOSC/osc-receive 10001;
#X connect 1 0 3 0;
#X connect 3 0 2 0;
#X connect 4 0 5 0;
#X connect 5 0 2 0;
#X connect 6 0 7 0;
#X connect 7 0 2 0;
#X connect 8 0 9 0;
#X connect 9 0 2 0;
#X connect 10 0 11 0;
#X connect 11 0 2 0;
#X connect 12 0 13 0;
#X connect 13 0 2 0;
#X connect 14 0 2 0;
#X connect 15 0 2 0;
#X connect 16 0 14 0;
#X connect 17 0 15 0;
#X connect 18 0 1 0;
#X connect 19 0 18 0;
