#N canvas 778 409 621 405 10;
#X obj 34 201 adc~;
#X text 70 199 DSP config;
#X msg 524 223 \; pd dsp 1;
#X obj 524 184 loadbang;
#X obj 524 203 del 100;
#X obj 16 132 dac~;
#X obj 19 265 send~ adc_ch1;
#X obj 51 244 send~ adc_ch2;
#X obj 31 71 catch~ dac_ch1;
#X obj 43 88 catch~ dac_ch2;
#X obj 371 302 throw~ dac_ch2;
#X obj 273 303 throw~ dac_ch1;
#X msg 494 80 disconnect;
#X obj 405 22 r oscIn;
#X obj 313 139 bng 15 250 50 0 empty empty empty 17 7 0 10 -262144
-1 -1;
#X msg 342 159 /stop 1;
#X obj 313 158 bng 15 250 50 0 empty empty empty 17 7 0 10 -262144
-1 -1;
#X obj 270 194 openpanel;
#X obj 249 196 bng 15 250 50 0 empty empty empty 17 7 0 10 -262144
-1 -1;
#X msg 341 195 /read \$1;
#X msg 342 177 /loop \$1;
#X obj 313 176 tgl 15 0 empty empty empty 17 7 0 10 -262144 -1 -1 0
1;
#X obj 167 88 send notes;
#N canvas 243 167 450 300 midinotes 0;
#X obj 320 24 inlet;
#X obj 38 230 outlet;
#X obj 41 35 notein;
#X obj 41 111 unpack 1 2 3;
#X obj 41 63 pack 1 2 3;
#X msg 41 87 \$3 \$1 \$2;
#X obj 75 143 +;
#X obj 110 136 * 0.001;
#X obj 292 155 * 1000;
#X obj 274 50 t f f f;
#X obj 274 122 int;
#X obj 314 76 int;
#X obj 293 98 -;
#X obj 273 214 pack;
#X obj 292 178 int;
#X obj 155 221 spigot;
#X obj 200 222 tgl 15 0 empty empty empty 17 7 0 10 -262144 -1 -1 0
1;
#X obj 155 267 send print;
#X obj 155 244 list prepend notes;
#X obj 40 147 t b;
#X obj 38 186 list prepend /note/;
#X connect 2 0 4 0;
#X connect 2 1 4 1;
#X connect 2 2 4 2;
#X connect 3 0 19 0;
#X connect 3 1 6 0;
#X connect 3 2 7 0;
#X connect 4 0 5 0;
#X connect 5 0 3 0;
#X connect 6 0 9 0;
#X connect 6 0 20 0;
#X connect 7 0 6 1;
#X connect 8 0 14 0;
#X connect 9 0 10 0;
#X connect 9 1 12 0;
#X connect 9 2 11 0;
#X connect 10 0 13 0;
#X connect 11 0 12 1;
#X connect 12 0 8 0;
#X connect 13 0 15 0;
#X connect 14 0 13 1;
#X connect 15 0 18 0;
#X connect 16 0 15 1;
#X connect 18 0 17 0;
#X connect 20 0 1 0;
#X restore 167 68 pd midinotes;
#N canvas 954 251 408 415 ctlin 0;
#X obj 39 328 outlet;
#X obj 41 111 unpack 1 2 3;
#X obj 40 255 list append;
#X obj 41 63 pack 1 2 3;
#X obj 41 35 ctlin;
#X msg 41 87 \$3 \$2 \$1;
#X obj 41 147 makefilename /ctl/%d/%%d;
#X msg 41 174 set \$1;
#X obj 41 207 makefilename;
#X obj 41 229 pack s f;
#X obj 39 278 list trim;
#N canvas 0 23 545 695 ctlmap 0;
#X obj 64 120 list;
#X obj 12 175 sel -1;
#X obj 194 498 list trim;
#X obj 194 554 list split 1;
#X obj 195 651 send;
#X obj 194 600 list;
#X obj 194 577 t b l;
#X obj 194 623 list trim;
#X obj 194 521 route head;
#X obj 74 571 route patch;
#X obj 13 224 list;
#X obj 64 96 list split 1;
#X obj 246 192 t a a a;
#X obj 194 451 text get ctlMapping 2 3;
#X obj 64 145 text search ctlMapping 0;
#X obj 125 224 text get ctlMapping 1;
#X obj 194 309 sel;
#X obj 194 332 f;
#X obj 194 286 t b f;
#X obj 194 428 int;
#X obj 125 247 sel symbol *;
#X obj 100 278 t f f;
#X obj 194 378 text get ctlMapping 4;
#X obj 194 355 int;
#X obj 194 476 list append;
#X obj 160 332 f;
#X obj 194 401 t b f;
#X obj 14 548 t a;
#X obj -7 34 t a a a;
#X obj -7 8 inlet;
#X obj 62 618 outlet;
#X connect 0 0 14 0;
#X connect 1 0 10 0;
#X connect 1 1 12 0;
#X connect 2 0 8 0;
#X connect 3 0 6 0;
#X connect 3 1 5 1;
#X connect 5 0 7 0;
#X connect 6 0 5 0;
#X connect 6 1 4 1;
#X connect 7 0 4 0;
#X connect 8 0 3 0;
#X connect 8 1 9 0;
#X connect 9 0 30 0;
#X connect 10 0 27 0;
#X connect 11 0 0 0;
#X connect 11 1 21 0;
#X connect 12 0 15 0;
#X connect 12 1 23 1;
#X connect 12 2 19 1;
#X connect 13 0 24 0;
#X connect 14 0 1 0;
#X connect 15 0 20 0;
#X connect 16 0 23 0;
#X connect 17 0 16 0;
#X connect 18 0 17 0;
#X connect 18 1 16 1;
#X connect 19 0 13 0;
#X connect 20 1 25 0;
#X connect 20 2 18 0;
#X connect 21 0 25 1;
#X connect 21 1 17 1;
#X connect 22 0 26 0;
#X connect 23 0 22 0;
#X connect 24 0 2 0;
#X connect 25 0 26 0;
#X connect 26 0 19 0;
#X connect 26 1 24 1;
#X connect 27 0 30 0;
#X connect 28 0 10 1;
#X connect 28 1 11 0;
#X connect 29 0 28 0;
#X restore 39 300 pd ctlmap;
#X obj 177 276 spigot;
#X obj 222 277 tgl 15 0 empty empty empty 17 7 0 10 -262144 -1 -1 0
1;
#X obj 177 322 send print;
#X obj 177 299 list prepend ctlmap;
#X obj 181 110 text define -k ctlMapping;
#A set /ctl/1/58 127 head /head/patcher/- 1 \; /ctl/1/59 127 head /head/patcher/+
1 \; /ctl/1/46 127 head /head/patcher/go 1 \; /ctl/1/43 * head /head/rev/go
1 \; /ctl/1/44 * head /head/ff/go 1 \; /ctl/1/42 * head /head/stop/go
1 \; /ctl/1/41 * head /head/play/go 1 \; /ctl/1/45 * head /head/go/go
1 \;;
#X obj 181 46 loadbang;
#X msg 181 67 read ctlMapping.txt;
#X msg 187 88 write ctlMapping.txt;
#X connect 1 0 6 0;
#X connect 1 1 8 0;
#X connect 1 2 9 1;
#X connect 2 0 10 0;
#X connect 3 0 5 0;
#X connect 4 0 3 0;
#X connect 4 1 3 1;
#X connect 4 2 3 2;
#X connect 5 0 1 0;
#X connect 6 0 7 0;
#X connect 7 0 8 0;
#X connect 8 0 9 0;
#X connect 9 0 2 0;
#X connect 10 0 11 0;
#X connect 11 0 0 0;
#X connect 11 0 12 0;
#X connect 12 0 15 0;
#X connect 13 0 12 1;
#X connect 15 0 14 0;
#X connect 17 0 18 0;
#X connect 18 0 16 0;
#X connect 19 0 16 0;
#X restore 167 27 pd ctlin;
#X obj 409 40 r notes;
#X obj 410 60 r ctl;
#N canvas 0 22 450 300 vol 0;
#X obj 90 103 inlet~;
#X obj 34 103 line~;
#X obj 69 175 *~;
#X obj 34 60 pack 0 50;
#X obj 153 103 inlet~;
#X obj 159 174 *~;
#X obj 90 125 hip~ 3;
#X obj 152 125 hip~ 3;
#X obj 34 22 inlet;
#X obj 68 234 outlet~;
#X obj 156 235 outlet~;
#X connect 0 0 6 0;
#X connect 1 0 5 0;
#X connect 1 0 2 0;
#X connect 2 0 9 0;
#X connect 3 0 1 0;
#X connect 4 0 7 0;
#X connect 5 0 10 0;
#X connect 6 0 2 1;
#X connect 7 0 5 1;
#X connect 8 0 3 0;
#X restore 15 112 pd vol;
#N canvas 753 28 534 701 OSC-dispatch 1;
#X obj 12 85 netreceive -u -b, f 17;
#X msg 77 62 listen 0;
#X obj 11 515 oscparse;
#X obj 61 575 send;
#X msg 12 63 listen \$1;
#X obj 12 33 inlet;
#N canvas 0 22 422 713 list2osc 0;
#X obj 37 160 list split 1;
#X obj 37 133 list append;
#X obj 37 76 t b l;
#X obj 37 -101 inlet;
#X obj 33 711 outlet;
#X obj 37 186 makefilename /%s;
#X obj 219 149 bng 15 250 50 0 empty empty empty 0 -6 0 8 -262144 -1
-1;
#X obj 199 148 bng 15 250 50 0 empty empty empty 0 -6 0 8 -262144 -1
-1;
#X obj 41 278 list append;
#X obj 135 238 t l;
#X obj 37 213 list prepend;
#X obj 180 112 t b b b;
#X obj 37 108 until;
#N canvas 34 68 704 543 list-drip 0;
#X obj 73 94 t a a;
#X obj 73 251 spigot;
#X obj 112 159 bang;
#X obj 112 178 1;
#X obj 233 159 route bang;
#X obj 193 160 bang;
#X obj 193 179 0;
#X obj 112 124 list split 2;
#X obj 242 389 list split;
#X obj 309 338 list length;
#X obj 309 360 >> 1;
#X obj 73 270 t a a a a;
#X obj 73 456 list split;
#X obj 140 408 list length;
#X obj 140 433 >> 1;
#X obj 41 29 inlet;
#X obj 300 185 outlet;
#X text 83 29 Copyright 2009 by Mathieu Bouchard;
#X obj 41 63 t b a;
#X obj 475 129 outlet;
#X text 530 131 signal end of list;
#X text 391 33 made compatible with [list-drip]: fbar 2009;
#X connect 0 0 1 0;
#X connect 0 1 7 0;
#X connect 1 0 11 0;
#X connect 2 0 3 0;
#X connect 3 0 1 1;
#X connect 4 1 16 0;
#X connect 5 0 6 0;
#X connect 6 0 1 1;
#X connect 7 0 2 0;
#X connect 7 2 4 0;
#X connect 7 2 5 0;
#X connect 8 0 0 0;
#X connect 9 0 10 0;
#X connect 10 0 8 1;
#X connect 11 0 12 0;
#X connect 11 1 13 0;
#X connect 11 2 8 0;
#X connect 11 3 9 0;
#X connect 12 1 0 0;
#X connect 13 0 14 0;
#X connect 14 0 12 1;
#X connect 15 0 18 0;
#X connect 18 0 19 0;
#X connect 18 1 0 0;
#X restore 43 340 pd list-drip;
#X msg 44 368 symbol \$1;
#X obj 44 406 makefilename %s;
#X msg 173 381 set \$1%s;
#X obj 44 434 t s a;
#X obj 113 463 symbol;
#X msg 137 341 set %s;
#X obj 42 310 t a b;
#X obj 65 -29 list length;
#X obj 37 48 list split;
#X obj 65 -4 - 1;
#X obj 65 21 change;
#X obj 38 -55 t l l;
#X obj 337 518 list;
#X obj 352 85 t a;
#X obj 308 698 outlet;
#X obj 244 697 outlet;
#X obj 240 605 list split 1;
#X obj 257 566 t l l;
#X obj 309 644 t b s;
#X obj 258 667 f;
#X connect 0 0 5 0;
#X connect 0 1 1 1;
#X connect 0 2 11 0;
#X connect 1 0 0 0;
#X connect 2 0 12 0;
#X connect 2 1 1 1;
#X connect 3 0 25 0;
#X connect 5 0 10 0;
#X connect 6 0 8 0;
#X connect 7 0 10 1;
#X connect 8 0 20 0;
#X connect 9 0 10 1;
#X connect 10 0 9 0;
#X connect 10 0 8 1;
#X connect 11 0 12 1;
#X connect 11 1 7 0;
#X connect 11 2 6 0;
#X connect 12 0 1 0;
#X connect 13 0 14 0;
#X connect 13 1 18 0;
#X connect 14 0 15 0;
#X connect 15 0 17 0;
#X connect 16 0 15 0;
#X connect 17 0 18 1;
#X connect 17 1 16 0;
#X connect 18 0 26 0;
#X connect 19 0 15 0;
#X connect 20 0 13 0;
#X connect 20 1 19 0;
#X connect 21 0 23 0;
#X connect 22 0 2 0;
#X connect 22 1 27 0;
#X connect 23 0 24 0;
#X connect 24 0 22 1;
#X connect 25 0 22 0;
#X connect 25 1 21 0;
#X connect 26 0 31 0;
#X connect 27 0 26 1;
#X connect 30 0 32 0;
#X connect 30 1 33 1;
#X connect 31 0 4 0;
#X connect 31 1 30 0;
#X connect 32 0 33 0;
#X connect 32 1 28 0;
#X connect 33 0 29 0;
#X restore 11 539 pd list2osc;
#X obj 12 576 outlet;
#X obj 226 178 list tosymbol;
#X obj 537 94 bng 15 250 50 0 empty empty empty 17 7 0 10 -262144 -1
-1;
#X obj 226 203 list fromsymbol;
#X obj 227 303 list tosymbol;
#X obj 227 335 list prepend set;
#X obj 227 438 list tosymbol;
#X obj 227 362 list trim;
#X obj 226 414 oscformat;
#X obj 213 103 print;
#X text 386 55 v1 supporte un seul float;
#X text 384 42 v2 support adaptatif ?;
#X obj 253 254 list length;
#X obj 227 386 t b a;
#X obj 226 227 t a a;
#X obj 29 140 t a a;
#X obj 29 181 list split;
#X text 386 55 v1 supporte un seul float;
#X obj 27 347 oscparse;
#X obj 26 440 list prepend;
#X obj 26 489 print end;
#X obj 28 212 route 0;
#X obj 29 243 route 0;
#X obj 29 274 route 0;
#X obj 27 317 list prepend 47 0 0 0;
#X obj 240 623 oscformat;
#X obj 240 644 oscparse;
#X obj 240 672 print post;
#X obj 234 503 list trim;
#X obj 227 461 t a a;
#X obj 340 474 outlet;
#X obj 235 528 list split 1;
#X obj 238 583 list;
#X obj 237 549 t b a;
#X obj 273 576 list prepend set;
#X obj 273 599 list trim;
#X text 84 211 s'assurer de ne plus avoir de zero qui commence la liste
de sorte a en ajouter seulement 3 et un 47 (slash);
#X text 330 176 list tosymbol a la particularite d elaguer tout ce
qui viens apres un espace utile pour composer le radical du message
OSC;
#X connect 0 0 2 0;
#X connect 0 0 16 0;
#X connect 0 0 22 0;
#X connect 1 0 0 0;
#X connect 2 0 6 0;
#X connect 4 0 0 0;
#X connect 5 0 4 0;
#X connect 6 0 7 0;
#X connect 6 1 3 0;
#X connect 6 2 3 1;
#X connect 8 0 10 0;
#X connect 10 0 21 0;
#X connect 11 0 12 0;
#X connect 12 0 14 0;
#X connect 13 0 36 0;
#X connect 14 0 20 0;
#X connect 15 0 13 0;
#X connect 19 0 23 1;
#X connect 20 0 15 0;
#X connect 20 1 15 0;
#X connect 21 0 11 0;
#X connect 21 1 19 0;
#X connect 22 0 23 0;
#X connect 22 1 8 0;
#X connect 23 1 28 0;
#X connect 25 0 26 0;
#X connect 26 0 27 0;
#X connect 26 0 35 0;
#X connect 28 0 29 0;
#X connect 28 1 31 0;
#X connect 29 0 30 0;
#X connect 29 1 31 0;
#X connect 30 0 31 0;
#X connect 30 1 31 0;
#X connect 31 0 25 0;
#X connect 32 0 33 0;
#X connect 33 0 34 0;
#X connect 35 0 38 0;
#X connect 36 0 26 1;
#X connect 36 1 37 0;
#X connect 38 0 40 0;
#X connect 38 1 39 1;
#X connect 39 0 32 0;
#X connect 40 0 39 0;
#X connect 40 1 41 0;
#X connect 41 0 42 0;
#X connect 42 0 32 0;
#X restore 255 58 pd OSC-dispatch;
#X msg 477 50 localhost 9998;
#N canvas 594 188 450 300 OSC-repack 0;
#X obj 13 41 list split 1;
#X obj 66 107 list prepend set;
#X obj 14 77 t b l;
#X obj 36 249 outlet;
#X obj 67 137 list trim;
#X obj 35 194 list prepend send;
#X obj 35 224 list trim;
#X obj 35 165 oscformat;
#X obj 14 9 inlet;
#X obj 33 124 f;
#X obj 275 18 inlet;
#X obj 275 248 netsend -u -b;
#X obj 274 86 list prepend connect;
#X obj 273 108 list trim;
#X obj 417 102 inlet;
#X obj 238 143 print;
#X connect 0 0 2 0;
#X connect 0 1 9 1;
#X connect 1 0 4 0;
#X connect 2 0 9 0;
#X connect 2 1 1 0;
#X connect 4 0 7 0;
#X connect 5 0 6 0;
#X connect 6 0 3 0;
#X connect 6 0 11 0;
#X connect 7 0 5 0;
#X connect 8 0 0 0;
#X connect 9 0 7 0;
#X connect 10 0 12 0;
#X connect 12 0 13 0;
#X connect 13 0 11 0;
#X connect 13 0 15 0;
#X connect 14 0 11 0;
#X restore 405 80 pd OSC-repack;
#X text 10 6 HEAD;
#X obj 255 80 s oscIn;
#N canvas 0 22 450 300 vol 0;
#X obj 90 103 inlet~;
#X obj 34 103 line~;
#X obj 69 175 *~;
#X obj 34 60 pack 0 50;
#X obj 153 103 inlet~;
#X obj 159 174 *~;
#X obj 90 125 hip~ 3;
#X obj 152 125 hip~ 3;
#X obj 34 22 inlet;
#X obj 68 234 outlet~;
#X obj 156 235 outlet~;
#X connect 0 0 6 0;
#X connect 1 0 5 0;
#X connect 1 0 2 0;
#X connect 2 0 9 0;
#X connect 3 0 1 0;
#X connect 4 0 7 0;
#X connect 5 0 10 0;
#X connect 6 0 2 1;
#X connect 7 0 5 1;
#X connect 8 0 3 0;
#X restore 19 223 pd vol;
#N canvas 0 22 450 300 vol 0;
#X obj 90 103 inlet~;
#X obj 34 103 line~;
#X obj 69 175 *~;
#X obj 34 60 pack 0 50;
#X obj 153 103 inlet~;
#X obj 159 174 *~;
#X obj 90 125 hip~ 3;
#X obj 152 125 hip~ 3;
#X obj 34 22 inlet;
#X obj 68 234 outlet~;
#X obj 156 235 outlet~;
#X connect 0 0 6 0;
#X connect 1 0 5 0;
#X connect 1 0 2 0;
#X connect 2 0 9 0;
#X connect 3 0 1 0;
#X connect 4 0 7 0;
#X connect 5 0 10 0;
#X connect 6 0 2 1;
#X connect 7 0 5 1;
#X connect 8 0 3 0;
#X restore 15 112 pd vol;
#N canvas 43 105 621 608 patcherBank 0;
#X obj 178 206 text size patchers;
#X obj 218 181 text define -k patchers;
#A set test_patcher/simplePlay.pd \; test_patcher/simplePlayNo.pd \;
;
#X obj 94 267 text get patchers;
#X msg 298 155 write patchers.txt;
#X msg 176 154 read patchers.txt;
#X obj 73 181 %;
#X obj 177 181 t b a;
#X obj 28 10 inlet;
#X obj 73 128 +;
#X obj 73 147 int;
#X msg 74 96 -1;
#X msg 125 94 1;
#X obj 49 440 send print;
#X obj 73 234 t a a;
#X obj 190 480 spigot;
#X obj 256 482 spigot;
#X obj 224 419 == 0;
#X obj 290 418 == 1;
#X obj 327 364 tgl 15 0 empty empty empty 17 7 0 10 -262144 -1 -1 0
1;
#X text 356 367 gui?;
#X obj 181 452 t l l;
#X obj 194 612 outlet;
#X msg 193 564 pd~ start -nogui pd~ \$1;
#X msg 256 541 pd~ start pd~ \$1;
#X obj 326 339 inlet;
#X obj 27 475 list;
#X obj 49 413 pack f s s;
#X obj 98 366 loadbang;
#X obj 98 391 symbol selected;
#X obj 164 368 bng 15 250 50 0 empty empty empty 17 7 0 10 -262144
-1 -1;
#X obj 45 520 loadbang;
#X obj 111 522 bng 15 250 50 0 empty empty empty 17 7 0 10 -262144
-1 -1;
#X obj 27 577 pack s s;
#X obj 12 603 list trim;
#X obj 12 623 send print;
#X obj 45 545 symbol loaded;
#X obj 27 33 r /head/patcher/go;
#X obj 154 33 r /head/patcher/-;
#X obj 276 34 r /head/patcher/+;
#X obj 380 339 r /head/patcher/gui;
#X obj 194 590 list trim;
#X obj 27 69 t b;
#X obj 75 68 t b;
#X obj 127 74 t b;
#X obj 73 208 abs;
#X obj 176 125 loadbang;
#X connect 0 0 5 1;
#X connect 2 0 25 1;
#X connect 2 0 26 1;
#X connect 3 0 6 0;
#X connect 4 0 6 0;
#X connect 5 0 44 0;
#X connect 6 0 0 0;
#X connect 6 1 1 0;
#X connect 8 0 9 0;
#X connect 9 0 8 1;
#X connect 9 0 5 0;
#X connect 10 0 8 0;
#X connect 11 0 8 0;
#X connect 13 0 26 0;
#X connect 13 1 2 0;
#X connect 14 0 22 0;
#X connect 15 0 23 0;
#X connect 16 0 14 1;
#X connect 17 0 15 1;
#X connect 18 0 17 0;
#X connect 18 0 16 0;
#X connect 20 0 14 0;
#X connect 20 1 15 0;
#X connect 22 0 40 0;
#X connect 23 0 40 0;
#X connect 24 0 18 0;
#X connect 25 0 20 0;
#X connect 25 0 32 0;
#X connect 26 0 12 0;
#X connect 27 0 28 0;
#X connect 28 0 26 2;
#X connect 29 0 28 0;
#X connect 30 0 35 0;
#X connect 31 0 35 0;
#X connect 32 0 33 0;
#X connect 33 0 34 0;
#X connect 35 0 32 1;
#X connect 36 0 41 0;
#X connect 37 0 42 0;
#X connect 38 0 43 0;
#X connect 39 0 18 0;
#X connect 40 0 21 0;
#X connect 41 0 25 0;
#X connect 42 0 10 0;
#X connect 43 0 11 0;
#X connect 44 0 13 0;
#X connect 45 0 4 0;
#X restore 176 240 pd patcherBank;
#X obj 525 136 r print;
#X obj 525 161 print;
#X obj 325 237 t a;
#X obj 251 217 tgl 15 0 empty empty empty 17 7 0 10 -262144 -1 -1 0
1;
#X obj 434 177 r oscIn;
#X obj 432 198 r notes;
#X obj 432 221 r ctlmap;
#X obj 176 317 print;
#X obj 176 277 pd~ -ninsig 2 -noutsig 2;
#X msg 334 139 /play 1;
#X obj 167 48 send ctlmap;
#X floatatom 255 37 10 0 0 0 - - -, f 10;
#N canvas 0 22 450 300 store 0;
#X obj 27 26 inlet;
#X obj 26 117 outlet;
#X msg 27 53 set \$1;
#X msg 27 85 9999;
#X obj 84 53 loadbang;
#X connect 0 0 2 0;
#X connect 2 0 3 0;
#X connect 3 0 1 0;
#X connect 4 0 3 0;
#X restore 244 17 pd store;
#X floatatom 15 53 10 0 1 0 - - -, f 10;
#N canvas 0 22 450 300 store 0;
#X obj 27 26 inlet;
#X obj 26 117 outlet;
#X msg 27 53 set \$1;
#X msg 27 85 1;
#X obj 84 53 loadbang;
#X connect 0 0 2 0;
#X connect 2 0 3 0;
#X connect 3 0 1 0;
#X connect 4 0 3 0;
#X restore 4 33 pd store;
#X floatatom 18 181 10 0 1 0 - - -, f 10;
#N canvas 0 22 450 300 store 0;
#X obj 27 26 inlet;
#X obj 26 117 outlet;
#X msg 27 53 set \$1;
#X msg 27 85 1;
#X obj 84 53 loadbang;
#X connect 0 0 2 0;
#X connect 2 0 3 0;
#X connect 3 0 1 0;
#X connect 4 0 3 0;
#X restore 7 161 pd store;
#N canvas 0 22 450 300 storeList 0;
#X obj 27 26 inlet;
#X obj 26 155 outlet;
#X msg 25 123 localhost 9998;
#X obj 104 91 loadbang;
#X obj 27 57 list prepend set;
#X obj 25 86 list trim;
#X connect 0 0 4 0;
#X connect 2 0 1 0;
#X connect 3 0 2 0;
#X connect 4 0 5 0;
#X connect 5 0 2 0;
#X restore 462 22 pd storeList;
#X connect 0 0 33 1;
#X connect 0 1 33 2;
#X connect 3 0 4 0;
#X connect 4 0 2 0;
#X connect 8 0 27 1;
#X connect 9 0 27 2;
#X connect 12 0 30 2;
#X connect 13 0 30 0;
#X connect 14 0 45 0;
#X connect 15 0 38 0;
#X connect 16 0 15 0;
#X connect 17 0 19 0;
#X connect 18 0 17 0;
#X connect 19 0 38 0;
#X connect 20 0 38 0;
#X connect 21 0 20 0;
#X connect 23 0 22 0;
#X connect 24 0 46 0;
#X connect 25 0 30 0;
#X connect 26 0 30 0;
#X connect 27 0 5 0;
#X connect 27 1 5 1;
#X connect 28 0 32 0;
#X connect 29 0 53 0;
#X connect 29 0 30 0;
#X connect 33 0 6 0;
#X connect 33 1 7 0;
#X connect 35 0 44 0;
#X connect 36 0 37 0;
#X connect 38 0 44 0;
#X connect 39 0 35 1;
#X connect 40 0 38 0;
#X connect 41 0 38 0;
#X connect 42 0 38 0;
#X connect 44 0 43 0;
#X connect 44 1 11 0;
#X connect 44 2 10 0;
#X connect 45 0 38 0;
#X connect 47 0 28 0;
#X connect 47 0 48 0;
#X connect 48 0 47 0;
#X connect 49 0 50 0;
#X connect 49 0 27 0;
#X connect 50 0 49 0;
#X connect 51 0 52 0;
#X connect 51 0 33 0;
#X connect 52 0 51 0;
#X connect 53 0 29 0;
