#N canvas 673 96 600 324 10;
#X obj 169 100 adc~;
#X text 205 98 DSP config;
#X obj 16 159 dac~;
#X obj 154 164 send~ adc_ch1;
#X obj 186 143 send~ adc_ch2;
#X obj 31 98 catch~ dac_ch1;
#X obj 43 115 catch~ dac_ch2;
#X obj 437 141 throw~ dac_ch2;
#X obj 432 165 throw~ dac_ch1;
#X msg 205 212 disconnect;
#X obj 99 55 send notes;
#N canvas 243 167 450 300 midinotes 0;
#X obj 320 24 inlet;
#X obj 38 230 outlet;
#X obj 41 35 notein;
#X obj 41 111 unpack 1 2 3;
#X obj 41 63 pack 1 2 3;
#X msg 41 87 \$3 \$1 \$2;
#X obj 75 143 +;
#X obj 110 136 * 0.001;
#X obj 292 155 * 1000;
#X obj 274 50 t f f f;
#X obj 274 122 int;
#X obj 314 76 int;
#X obj 293 98 -;
#X obj 273 214 pack;
#X obj 292 178 int;
#X obj 155 221 spigot;
#X obj 200 222 tgl 15 0 empty empty empty 17 7 0 10 -262144 -1 -1 0
1;
#X obj 155 267 send print;
#X obj 155 244 list prepend notes;
#X obj 40 147 t b;
#X obj 38 186 list prepend /note/;
#X connect 2 0 4 0;
#X connect 2 1 4 1;
#X connect 2 2 4 2;
#X connect 3 0 19 0;
#X connect 3 1 6 0;
#X connect 3 2 7 0;
#X connect 4 0 5 0;
#X connect 5 0 3 0;
#X connect 6 0 9 0;
#X connect 6 0 20 0;
#X connect 7 0 6 1;
#X connect 8 0 14 0;
#X connect 9 0 10 0;
#X connect 9 1 12 0;
#X connect 9 2 11 0;
#X connect 10 0 13 0;
#X connect 11 0 12 1;
#X connect 12 0 8 0;
#X connect 13 0 15 0;
#X connect 14 0 13 1;
#X connect 15 0 18 0;
#X connect 16 0 15 1;
#X connect 18 0 17 0;
#X connect 20 0 1 0;
#X restore 99 35 pd midinotes;
#N canvas 954 251 408 415 ctlin 0;
#X obj 39 328 outlet;
#X obj 41 111 unpack 1 2 3;
#X obj 40 255 list append;
#X obj 41 63 pack 1 2 3;
#X obj 41 35 ctlin;
#X msg 41 87 \$3 \$2 \$1;
#X obj 41 147 makefilename /ctl/%d/%%d;
#X msg 41 174 set \$1;
#X obj 41 207 makefilename;
#X obj 41 229 pack s f;
#X obj 39 278 list trim;
#N canvas 0 23 545 695 ctlmap 0;
#X obj 64 120 list;
#X obj 12 175 sel -1;
#X obj 194 498 list trim;
#X obj 194 554 list split 1;
#X obj 195 651 send;
#X obj 194 600 list;
#X obj 194 577 t b l;
#X obj 194 623 list trim;
#X obj 194 521 route head;
#X obj 74 571 route patch;
#X obj 13 224 list;
#X obj 64 96 list split 1;
#X obj 246 192 t a a a;
#X obj 194 451 text get ctlMapping 2 3;
#X obj 64 145 text search ctlMapping 0;
#X obj 125 224 text get ctlMapping 1;
#X obj 194 309 sel;
#X obj 194 332 f;
#X obj 194 286 t b f;
#X obj 194 428 int;
#X obj 125 247 sel symbol *;
#X obj 100 278 t f f;
#X obj 194 378 text get ctlMapping 4;
#X obj 194 355 int;
#X obj 194 476 list append;
#X obj 160 332 f;
#X obj 194 401 t b f;
#X obj 14 548 t a;
#X obj -7 34 t a a a;
#X obj -7 8 inlet;
#X obj 62 618 outlet;
#X connect 0 0 14 0;
#X connect 1 0 10 0;
#X connect 1 1 12 0;
#X connect 2 0 8 0;
#X connect 3 0 6 0;
#X connect 3 1 5 1;
#X connect 5 0 7 0;
#X connect 6 0 5 0;
#X connect 6 1 4 1;
#X connect 7 0 4 0;
#X connect 8 0 3 0;
#X connect 8 1 9 0;
#X connect 9 0 30 0;
#X connect 10 0 27 0;
#X connect 11 0 0 0;
#X connect 11 1 21 0;
#X connect 12 0 15 0;
#X connect 12 1 23 1;
#X connect 12 2 19 1;
#X connect 13 0 24 0;
#X connect 14 0 1 0;
#X connect 15 0 20 0;
#X connect 16 0 23 0;
#X connect 17 0 16 0;
#X connect 18 0 17 0;
#X connect 18 1 16 1;
#X connect 19 0 13 0;
#X connect 20 1 25 0;
#X connect 20 2 18 0;
#X connect 21 0 25 1;
#X connect 21 1 17 1;
#X connect 22 0 26 0;
#X connect 23 0 22 0;
#X connect 24 0 2 0;
#X connect 25 0 26 0;
#X connect 26 0 19 0;
#X connect 26 1 24 1;
#X connect 27 0 30 0;
#X connect 28 0 10 1;
#X connect 28 1 11 0;
#X connect 29 0 28 0;
#X restore 39 300 pd ctlmap;
#X obj 177 276 spigot;
#X obj 222 277 tgl 15 0 empty empty empty 17 7 0 10 -262144 -1 -1 0
1;
#X obj 177 322 send print;
#X obj 177 299 list prepend ctlmap;
#X obj 181 110 text define -k ctlMapping;
#A set /ctl/1/58 127 head /head/patcher/- 1 \; /ctl/1/59 127 head /head/patcher/+
1 \; /ctl/1/46 127 head /head/patcher/go 1 \; /ctl/1/43 * head /head/rev/go
1 \; /ctl/1/44 * head /head/ff/go 1 \; /ctl/1/42 * head /head/stop/go
1 \; /ctl/1/41 * head /head/play/go 1 \; /ctl/1/45 * head /head/go/go
1 \;;
#X obj 181 46 loadbang;
#X msg 181 67 read ctlMapping.txt;
#X msg 187 88 write ctlMapping.txt;
#X connect 1 0 6 0;
#X connect 1 1 8 0;
#X connect 1 2 9 1;
#X connect 2 0 10 0;
#X connect 3 0 5 0;
#X connect 4 0 3 0;
#X connect 4 1 3 1;
#X connect 4 2 3 2;
#X connect 5 0 1 0;
#X connect 6 0 7 0;
#X connect 7 0 8 0;
#X connect 8 0 9 0;
#X connect 9 0 2 0;
#X connect 10 0 11 0;
#X connect 11 0 0 0;
#X connect 11 0 12 0;
#X connect 12 0 15 0;
#X connect 13 0 12 1;
#X connect 15 0 14 0;
#X connect 17 0 18 0;
#X connect 18 0 16 0;
#X connect 19 0 16 0;
#X restore 17 35 pd ctlin;
#N canvas 0 22 450 300 vol 0;
#X obj 90 103 inlet~;
#X obj 34 103 line~;
#X obj 69 175 *~;
#X obj 34 60 pack 0 50;
#X obj 153 103 inlet~;
#X obj 159 174 *~;
#X obj 90 125 hip~ 3;
#X obj 152 125 hip~ 3;
#X obj 34 22 inlet;
#X obj 68 234 outlet~;
#X obj 156 235 outlet~;
#X connect 0 0 6 0;
#X connect 1 0 5 0;
#X connect 1 0 2 0;
#X connect 2 0 9 0;
#X connect 3 0 1 0;
#X connect 4 0 7 0;
#X connect 5 0 10 0;
#X connect 6 0 2 1;
#X connect 7 0 5 1;
#X connect 8 0 3 0;
#X restore 15 139 pd vol;
#X text 10 6 HEAD;
#X obj 12 258 s oscIn;
#N canvas 0 22 450 300 vol 0;
#X obj 90 103 inlet~;
#X obj 34 103 line~;
#X obj 69 175 *~;
#X obj 34 60 pack 0 50;
#X obj 153 103 inlet~;
#X obj 159 174 *~;
#X obj 90 125 hip~ 3;
#X obj 152 125 hip~ 3;
#X obj 34 22 inlet;
#X obj 68 234 outlet~;
#X obj 156 235 outlet~;
#X connect 0 0 6 0;
#X connect 1 0 5 0;
#X connect 1 0 2 0;
#X connect 2 0 9 0;
#X connect 3 0 1 0;
#X connect 4 0 7 0;
#X connect 5 0 10 0;
#X connect 6 0 2 1;
#X connect 7 0 5 1;
#X connect 8 0 3 0;
#X restore 154 122 pd vol;
#N canvas 0 22 450 300 vol 0;
#X obj 90 103 inlet~;
#X obj 34 103 line~;
#X obj 69 175 *~;
#X obj 34 60 pack 0 50;
#X obj 153 103 inlet~;
#X obj 159 174 *~;
#X obj 90 125 hip~ 3;
#X obj 152 125 hip~ 3;
#X obj 34 22 inlet;
#X obj 68 234 outlet~;
#X obj 156 235 outlet~;
#X connect 0 0 6 0;
#X connect 1 0 5 0;
#X connect 1 0 2 0;
#X connect 2 0 9 0;
#X connect 3 0 1 0;
#X connect 4 0 7 0;
#X connect 5 0 10 0;
#X connect 6 0 2 1;
#X connect 7 0 5 1;
#X connect 8 0 3 0;
#X restore 15 139 pd vol;
#N canvas 43 105 621 608 patcherBank 0;
#X obj 177 271 text size patchers;
#X obj 217 246 text define -k patchers;
#A set test_patcher/simplePlay.pd \; test_patcher/simplePlayNo.pd \;
;
#X obj 93 332 text get patchers;
#X msg 297 220 write patchers.txt;
#X msg 175 219 read patchers.txt;
#X obj 72 246 %;
#X obj 176 246 t b a;
#X obj 13 44 inlet;
#X obj 72 193 +;
#X obj 72 212 int;
#X msg 73 161 -1;
#X msg 124 159 1;
#X obj 48 505 send print;
#X obj 72 299 t a a;
#X obj 189 545 spigot;
#X obj 255 547 spigot;
#X obj 223 484 == 0;
#X obj 289 483 == 1;
#X obj 326 429 tgl 15 0 empty empty empty 17 7 0 10 -262144 -1 -1 0
1;
#X text 355 432 gui?;
#X obj 180 517 t l l;
#X obj 193 677 outlet;
#X msg 192 629 pd~ start -nogui pd~ \$1;
#X msg 255 606 pd~ start pd~ \$1;
#X obj 325 404 inlet;
#X obj 26 540 list;
#X obj 48 478 pack f s s;
#X obj 97 431 loadbang;
#X obj 97 456 symbol selected;
#X obj 163 433 bng 15 250 50 0 empty empty empty 17 7 0 10 -262144
-1 -1;
#X obj 44 585 loadbang;
#X obj 110 587 bng 15 250 50 0 empty empty empty 17 7 0 10 -262144
-1 -1;
#X obj 26 642 pack s s;
#X obj 11 668 list trim;
#X obj 11 688 send print;
#X obj 44 610 symbol loaded;
#X obj 26 98 r /head/patcher/go;
#X obj 153 98 r /head/patcher/-;
#X obj 275 99 r /head/patcher/+;
#X obj 379 404 r /head/patcher/gui;
#X obj 193 655 list trim;
#X obj 26 134 t b;
#X obj 74 133 t b;
#X obj 126 139 t b;
#X obj 72 273 abs;
#X obj 175 190 loadbang;
#X obj 14 70 route go - +;
#X obj 444 477 loadbang;
#X msg 444 516 0;
#X obj 136 193 t 0 b;
#X connect 0 0 5 1;
#X connect 2 0 25 1;
#X connect 2 0 26 1;
#X connect 3 0 6 0;
#X connect 4 0 6 0;
#X connect 5 0 44 0;
#X connect 6 0 0 0;
#X connect 6 1 1 0;
#X connect 7 0 46 0;
#X connect 8 0 9 0;
#X connect 9 0 8 1;
#X connect 9 0 5 0;
#X connect 10 0 8 0;
#X connect 11 0 8 0;
#X connect 13 0 26 0;
#X connect 13 1 2 0;
#X connect 14 0 22 0;
#X connect 15 0 23 0;
#X connect 16 0 14 1;
#X connect 17 0 15 1;
#X connect 18 0 17 0;
#X connect 18 0 16 0;
#X connect 20 0 14 0;
#X connect 20 1 15 0;
#X connect 22 0 40 0;
#X connect 23 0 40 0;
#X connect 24 0 18 0;
#X connect 25 0 20 0;
#X connect 25 0 32 0;
#X connect 26 0 12 0;
#X connect 27 0 28 0;
#X connect 28 0 26 2;
#X connect 29 0 28 0;
#X connect 30 0 35 0;
#X connect 31 0 35 0;
#X connect 32 0 33 0;
#X connect 33 0 34 0;
#X connect 35 0 32 1;
#X connect 36 0 41 0;
#X connect 37 0 42 0;
#X connect 38 0 43 0;
#X connect 39 0 18 0;
#X connect 40 0 21 0;
#X connect 41 0 25 0;
#X connect 42 0 10 0;
#X connect 43 0 11 0;
#X connect 44 0 13 0;
#X connect 45 0 49 0;
#X connect 46 0 41 0;
#X connect 46 1 42 0;
#X connect 46 2 43 0;
#X connect 47 0 48 0;
#X connect 48 0 18 0;
#X connect 49 0 5 0;
#X connect 49 1 4 0;
#X restore 397 85 pd patcherBank;
#X obj 185 35 r print;
#X obj 490 61 tgl 15 0 empty empty empty 17 7 0 10 -262144 -1 -1 0
1;
#X obj 362 114 pd~ -ninsig 2 -noutsig 2;
#X obj 17 56 send ctlmap;
#X floatatom 12 211 10 0 0 1 oReceive /head/oReceive -, f 10;
#X floatatom 15 80 10 0 1 1 /head/DAC /head/DAC -, f 10;
#X floatatom 153 80 10 0 1 1 /head/ADC /head/ADC -, f 10;
#X msg 397 60 go 1;
#X msg 434 60 + 1;
#X obj 79 259 send;
#X msg 462 60 - 1;
#N canvas 159 253 343 434 config 0;
#X obj 181 127 text define config;
#X msg 193 103 write config.txt;
#X obj 29 94 text size config;
#X obj 31 236 text get config;
#X msg 181 82 read config.txt;
#X obj 29 137 until;
#X obj 31 186 t f f;
#X obj 29 161 f;
#X obj 56 209 + 1;
#X obj 29 115 t f b;
#X msg 71 137 0;
#X obj 57 282 list split 1;
#X obj 58 336 list;
#X obj 58 364 list trim;
#X obj 104 399 send;
#X obj 27 17 loadbang;
#X obj 29 45 t b b;
#X obj 118 31 bng 15 250 50 0 empty empty empty 17 7 0 10 -262144 -1
-1;
#X msg 241 220 \; pd dsp 1;
#X obj 241 181 loadbang;
#X obj 241 200 del 100;
#X obj 93 310 t b a;
#X obj 30 257 t a a;
#X obj 31 455 send print;
#X connect 1 0 0 0;
#X connect 2 0 9 0;
#X connect 3 0 22 0;
#X connect 4 0 0 0;
#X connect 5 0 7 0;
#X connect 6 0 3 0;
#X connect 6 1 8 0;
#X connect 7 0 6 0;
#X connect 8 0 7 1;
#X connect 9 0 5 0;
#X connect 9 1 10 0;
#X connect 10 0 7 1;
#X connect 11 0 21 0;
#X connect 11 1 12 1;
#X connect 12 0 13 0;
#X connect 13 0 14 0;
#X connect 15 0 16 0;
#X connect 16 0 2 0;
#X connect 16 1 4 0;
#X connect 17 0 16 0;
#X connect 19 0 20 0;
#X connect 20 0 18 0;
#X connect 21 0 12 0;
#X connect 21 1 14 1;
#X connect 22 0 23 0;
#X connect 22 1 11 0;
#X restore 45 6 pd config;
#X obj 12 232 pd-OSC/oReceive;
#X obj 133 256 pd-osc/oSend;
#X msg 213 256 127.0.0.1 10049;
#N canvas 0 22 450 300 oSend 0;
#X obj 69 66 list prepend set;
#X obj 68 90 list trim;
#X obj 18 12 r /head/oSend;
#X obj 16 114 outlet;
#X obj 69 115 outlet;
#X obj 18 34 t a a;
#X connect 0 0 1 0;
#X connect 1 0 4 0;
#X connect 2 0 5 0;
#X connect 5 0 3 0;
#X connect 5 1 0 0;
#X restore 206 233 pd oSend;
#X obj 185 57 print;
#N canvas 906 30 450 300 msgToPatch 0;
#X obj 15 94 t a;
#X obj 15 16 r oscIn;
#X obj 25 39 r notes;
#X obj 29 63 r ctlmap;
#X obj 15 138 outlet;
#X connect 0 0 4 0;
#X connect 1 0 0 0;
#X connect 2 0 0 0;
#X connect 3 0 0 0;
#X restore 363 36 pd msgToPatch;
#N canvas 906 30 450 300 msgToOSC 1;
#X obj 14 121 t a;
#X obj 15 16 r oscIn;
#X obj 25 39 r notes;
#X obj 29 63 r ctlmap;
#X obj 38 210 outlet;
#X obj 55 120 r print;
#X obj 134 116 print lllll;
#X connect 0 0 4 0;
#X connect 1 0 0 0;
#X connect 2 0 0 0;
#X connect 3 0 0 0;
#X connect 5 0 0 0;
#X restore 133 211 pd msgToOSC;
#X obj 360 212 send print;
#X obj 360 186 list prepend from pd~;
#X connect 0 0 16 1;
#X connect 0 1 16 2;
#X connect 5 0 13 1;
#X connect 6 0 13 2;
#X connect 9 0 32 1;
#X connect 11 0 10 0;
#X connect 12 0 22 0;
#X connect 13 0 2 0;
#X connect 13 1 2 1;
#X connect 16 0 3 0;
#X connect 16 1 4 0;
#X connect 18 0 21 0;
#X connect 19 0 35 0;
#X connect 20 0 18 1;
#X connect 21 0 39 0;
#X connect 21 1 8 0;
#X connect 21 2 7 0;
#X connect 23 0 31 0;
#X connect 24 0 13 0;
#X connect 25 0 16 0;
#X connect 26 0 18 0;
#X connect 27 0 18 0;
#X connect 29 0 18 0;
#X connect 31 0 15 0;
#X connect 31 1 28 0;
#X connect 31 2 28 1;
#X connect 34 0 32 2;
#X connect 34 1 33 0;
#X connect 36 0 21 0;
#X connect 37 0 32 0;
#X connect 39 0 38 0;
