#N canvas 794 159 450 300 10;
#X msg 60 70 stop;
#X obj 15 72 bng 15 250 50 0 empty empty empty 17 7 0 10 -262144 -1
-1;
#X text 31 70 play;
#X text 124 195 play avec une position de depart;
#X obj -2 258 dac~ 1 2;
#X obj 240 9 loadbang;
#N canvas 199 126 513 542 playMe 0;
#X obj 165 250 soundfiler;
#X obj 106 275 * 50000;
#X obj 19 408 *~;
#X obj 154 379 line~;
#X obj 106 306 t f b;
#X msg 154 335 1 50;
#X obj 25 -3 inlet;
#X obj 19 451 outlet~;
#X msg 35 99 stop;
#X msg 106 100 0;
#X obj 243 195 table table\$0;
#X obj 191 172 symbol table\$0;
#X obj 165 196 list append;
#X msg 165 222 read -resize \$2 \$3;
#X obj 164 120 list prepend symbol;
#X obj 164 148 t l b;
#X obj 25 38 route tabplay;
#X obj 35 69 route stop;
#X obj 107 69 route bang;
#X obj 164 96 route read;
#X obj 21 355 tabplay~ table\$0;
#X obj 115 451 outlet;
#X msg 115 426 end;
#X obj 25 18 list trim;
#X obj 331 123 route loop;
#X obj 298 350 spigot;
#X msg 297 247 0;
#X connect 0 0 1 1;
#X connect 1 0 4 0;
#X connect 2 0 7 0;
#X connect 3 0 2 1;
#X connect 4 0 20 0;
#X connect 4 1 5 0;
#X connect 5 0 3 0;
#X connect 6 0 23 0;
#X connect 8 0 20 0;
#X connect 9 0 1 0;
#X connect 11 0 12 1;
#X connect 12 0 13 0;
#X connect 13 0 0 0;
#X connect 14 0 15 0;
#X connect 15 0 12 0;
#X connect 15 1 11 0;
#X connect 16 0 20 0;
#X connect 16 1 17 0;
#X connect 17 0 8 0;
#X connect 17 1 18 0;
#X connect 18 0 9 0;
#X connect 18 1 19 0;
#X connect 19 0 14 0;
#X connect 19 1 24 0;
#X connect 20 0 2 0;
#X connect 20 1 22 0;
#X connect 20 1 25 0;
#X connect 22 0 21 0;
#X connect 23 0 16 0;
#X connect 24 0 25 1;
#X connect 25 0 26 0;
#X connect 26 0 1 0;
#X restore 11 201 pd playMe;
#X obj 191 222 loadbang;
#X msg 191 244 \; pd dsp 1;
#X obj 62 258 stdout;
#X obj 60 33 r /stop;
#X obj 184 10 r /read;
#X obj 184 78 list prepend read;
#X obj 125 16 r /loop;
#X obj 125 46 tgl 15 0 empty empty empty 17 7 0 10 -262144 -1 -1 0
1;
#X msg 124 74 loop \$1;
#X obj 16 5 r /play;
#X obj -2 146 r /ctl/1/0;
#N canvas 0 22 450 300 vol 0;
#X obj 90 103 inlet~;
#X obj 34 103 line~;
#X obj 69 175 *~;
#X obj 34 60 pack 0 50;
#X obj 153 103 inlet~;
#X obj 159 174 *~;
#X obj 90 125 hip~ 3;
#X obj 152 125 hip~ 3;
#X obj 34 22 inlet;
#X obj 68 234 outlet~;
#X obj 156 235 outlet~;
#X connect 0 0 6 0;
#X connect 1 0 5 0;
#X connect 1 0 2 0;
#X connect 2 0 9 0;
#X connect 3 0 1 0;
#X connect 4 0 7 0;
#X connect 5 0 10 0;
#X connect 6 0 2 1;
#X connect 7 0 5 1;
#X connect 8 0 3 0;
#X restore -2 225 pd vol;
#X obj -2 171 / 127;
#X msg 240 34 synth.wav;
#X connect 0 0 6 0;
#X connect 1 0 6 0;
#X connect 5 0 20 0;
#X connect 6 0 18 1;
#X connect 6 0 18 2;
#X connect 6 1 9 0;
#X connect 7 0 8 0;
#X connect 10 0 0 0;
#X connect 11 0 12 0;
#X connect 12 0 6 0;
#X connect 13 0 14 0;
#X connect 14 0 15 0;
#X connect 15 0 6 0;
#X connect 16 0 1 0;
#X connect 17 0 19 0;
#X connect 18 0 4 0;
#X connect 18 1 4 1;
#X connect 19 0 18 0;
#X connect 20 0 12 0;
